<svg width="218" height="101" viewBox="0 0 218 101" fill="none" xmlns="http://www.w3.org/2000/svg">
<path d="M104.779 67.0698C103.71 59.907 99.7446 55.9044 95.8327 56.3845C91.9208 56.8645 89.4666 61.8876 90.5009 68.8218L104.779 67.0698Z" fill="#FF6862"/>
<path d="M95.8328 58.6042C97.2296 58.6042 98.3619 57.6102 98.3619 56.3841C98.3619 55.158 97.2296 54.1641 95.8328 54.1641C94.436 54.1641 93.3037 55.158 93.3037 56.3841C93.3037 57.6102 94.436 58.6042 95.8328 58.6042Z" fill="white"/>
<path d="M90.9385 67.4512L91.0956 68.4391" stroke="#003450" stroke-width="0.172646" stroke-miterlimit="10" stroke-linejoin="round"/>
<path d="M91.6927 67.3574L91.8502 68.3457" stroke="#003450" stroke-width="0.172646" stroke-miterlimit="10" stroke-linejoin="round"/>
<path d="M92.4462 67.2676L92.6037 68.2555" stroke="#003450" stroke-width="0.172646" stroke-miterlimit="10" stroke-linejoin="round"/>
<path d="M93.2004 67.1738L93.3579 68.1621" stroke="#003450" stroke-width="0.172646" stroke-miterlimit="10" stroke-linejoin="round"/>
<path d="M93.9547 67.084L94.1121 68.0719" stroke="#003450" stroke-width="0.172646" stroke-miterlimit="10" stroke-linejoin="round"/>
<path d="M94.709 66.9883L94.866 67.9762" stroke="#003450" stroke-width="0.172646" stroke-miterlimit="10" stroke-linejoin="round"/>
<path d="M95.4624 66.8965L95.6198 67.8848" stroke="#003450" stroke-width="0.172646" stroke-miterlimit="10" stroke-linejoin="round"/>
<path d="M96.2167 66.8027L96.3741 67.7907" stroke="#003450" stroke-width="0.172646" stroke-miterlimit="10" stroke-linejoin="round"/>
<path d="M96.9717 66.7109L97.1292 67.6992" stroke="#003450" stroke-width="0.172646" stroke-miterlimit="10" stroke-linejoin="round"/>
<path d="M97.726 66.6191L97.8831 67.6071" stroke="#003450" stroke-width="0.172646" stroke-miterlimit="10" stroke-linejoin="round"/>
<path d="M98.4794 66.5273L98.6369 67.5156" stroke="#003450" stroke-width="0.172646" stroke-miterlimit="10" stroke-linejoin="round"/>
<path d="M99.2337 66.4336L99.3911 67.4215" stroke="#003450" stroke-width="0.172646" stroke-miterlimit="10" stroke-linejoin="round"/>
<path d="M99.9879 66.3438L100.145 67.3317" stroke="#003450" stroke-width="0.172646" stroke-miterlimit="10" stroke-linejoin="round"/>
<path d="M100.743 66.248L100.9 67.2363" stroke="#003450" stroke-width="0.172646" stroke-miterlimit="10" stroke-linejoin="round"/>
<path d="M101.496 66.1562L101.654 67.1442" stroke="#003450" stroke-width="0.172646" stroke-miterlimit="10" stroke-linejoin="round"/>
<path d="M102.251 66.0645L102.408 67.0527" stroke="#003450" stroke-width="0.172646" stroke-miterlimit="10" stroke-linejoin="round"/>
<path d="M103.004 65.9707L103.162 66.9586" stroke="#003450" stroke-width="0.172646" stroke-miterlimit="10" stroke-linejoin="round"/>
<path d="M103.759 65.8789L103.917 66.8668" stroke="#003450" stroke-width="0.172646" stroke-miterlimit="10" stroke-linejoin="round"/>
<path d="M139.513 65.0855H106.209C105.474 65.0855 104.878 64.5623 104.878 63.9172V63.5199C104.878 62.8744 105.474 62.3516 106.209 62.3516H139.513C140.249 62.3516 140.844 62.8748 140.844 63.5199V63.9172C140.845 64.5626 140.249 65.0855 139.513 65.0855Z" fill="#3B9CFD"/>
<path d="M139.513 62.4839H106.209C105.474 62.4839 104.878 61.9607 104.878 61.3156V60.9183C104.878 60.2729 105.474 59.75 106.209 59.75H139.513C140.249 59.75 140.844 60.2732 140.844 60.9183V61.3156C140.845 61.9607 140.249 62.4839 139.513 62.4839Z" fill="#3B9CFD"/>
<path d="M139.513 67.8218H106.209C105.474 67.8218 104.878 67.2986 104.878 66.6535V66.2562C104.878 65.6108 105.474 65.0879 106.209 65.0879H139.513C140.249 65.0879 140.844 65.6111 140.844 66.2562V66.6535C140.845 67.299 140.249 67.8218 139.513 67.8218Z" fill="#3B9CFD"/>
<path d="M106.435 67.8195C106.435 67.8195 104.451 67.861 104.368 65.0856C104.285 62.3101 106.435 62.3516 106.435 62.3516V67.8195Z" fill="#3B9CFD"/>
<path d="M139.287 65.0869C139.287 65.0869 141.271 65.1271 141.354 62.4214C141.438 59.7157 139.287 59.7559 139.287 59.7559V65.0869Z" fill="#3B9CFD"/>
<path d="M139.287 65.0859H111.557" stroke="#003450" stroke-width="0.172646" stroke-miterlimit="10" stroke-linejoin="round"/>
<path d="M106.436 62.3516H135.745" stroke="#003450" stroke-width="0.172646" stroke-miterlimit="10" stroke-linejoin="round"/>
<path d="M143.462 67.0898H87.2128V100.623H143.462V67.0898Z" fill="#FFA300"/>
<path d="M127.555 67.0898V100.623" stroke="#003450" stroke-width="0.172646" stroke-miterlimit="10" stroke-linejoin="round"/>
<path d="M116.816 75.418C116.816 75.418 120.179 85.5336 115.762 86.3823C111.345 87.2308 110.19 76.6909 110.19 76.6909L116.816 75.418Z" fill="#FF6862"/>
<path d="M110.664 78.5879C110.664 78.5879 108.337 82.2842 109.338 82.9748C110.338 83.6655 111.669 80.4608 111.669 80.4608L110.664 78.5879Z" fill="#FF6862"/>
<path d="M110.617 76.9121L110.794 77.6193" stroke="#003450" stroke-width="0.172646" stroke-miterlimit="10" stroke-linejoin="round"/>
<path d="M111.339 76.7754L111.515 77.4826" stroke="#003450" stroke-width="0.172646" stroke-miterlimit="10" stroke-linejoin="round"/>
<path d="M112.062 76.6367L112.238 77.344" stroke="#003450" stroke-width="0.172646" stroke-miterlimit="10" stroke-linejoin="round"/>
<path d="M112.784 76.4961L112.96 77.2033" stroke="#003450" stroke-width="0.172646" stroke-miterlimit="10" stroke-linejoin="round"/>
<path d="M113.507 76.3594L113.683 77.0663" stroke="#003450" stroke-width="0.172646" stroke-miterlimit="10" stroke-linejoin="round"/>
<path d="M114.228 76.2207L114.405 76.9279" stroke="#003450" stroke-width="0.172646" stroke-miterlimit="10" stroke-linejoin="round"/>
<path d="M114.951 76.082L115.127 76.7893" stroke="#003450" stroke-width="0.172646" stroke-miterlimit="10" stroke-linejoin="round"/>
<path d="M115.674 75.9414L115.85 76.6486" stroke="#003450" stroke-width="0.172646" stroke-miterlimit="10" stroke-linejoin="round"/>
<path d="M116.395 75.8047L116.572 76.5119" stroke="#003450" stroke-width="0.172646" stroke-miterlimit="10" stroke-linejoin="round"/>
<path d="M114.566 80.6113L115.305 83.5742" stroke="white" stroke-width="0.172646" stroke-miterlimit="10" stroke-linejoin="round"/>
<path d="M113.249 82.418L116.624 81.7695" stroke="white" stroke-width="0.172646" stroke-miterlimit="10" stroke-linejoin="round"/>
<path d="M113.482 81.2754L116.391 82.9121" stroke="white" stroke-width="0.172646" stroke-miterlimit="10" stroke-linejoin="round"/>
<path d="M114.004 83.3661L115.869 80.8125" stroke="white" stroke-width="0.172646" stroke-miterlimit="10" stroke-linejoin="round"/>
<path d="M114.97 80.5332L114.696 81.1305L114.165 80.6877" stroke="white" stroke-width="0.172646" stroke-miterlimit="10" stroke-linejoin="round"/>
<path d="M113.704 80.9668L113.991 81.5594L113.259 81.576" stroke="white" stroke-width="0.172646" stroke-miterlimit="10" stroke-linejoin="round"/>
<path d="M113.16 82.0625L113.841 82.303L113.337 82.7694" stroke="white" stroke-width="0.172646" stroke-miterlimit="10" stroke-linejoin="round"/>
<path d="M113.656 83.176L114.331 82.9238L114.35 83.5666" stroke="white" stroke-width="0.172646" stroke-miterlimit="10" stroke-linejoin="round"/>
<path d="M114.902 83.652L115.176 83.0547L115.708 83.4972" stroke="white" stroke-width="0.172646" stroke-miterlimit="10" stroke-linejoin="round"/>
<path d="M116.167 83.217L115.88 82.6244L116.613 82.6074" stroke="white" stroke-width="0.172646" stroke-miterlimit="10" stroke-linejoin="round"/>
<path d="M116.711 82.1233L116.031 81.8824L116.535 81.416" stroke="white" stroke-width="0.172646" stroke-miterlimit="10" stroke-linejoin="round"/>
<path d="M116.217 81.0095L115.542 81.2616L115.523 80.6191" stroke="white" stroke-width="0.172646" stroke-miterlimit="10" stroke-linejoin="round"/>
<path d="M116.402 75.4457C116.672 73.4688 116.809 71.4687 116.592 69.4868C116.539 69.0018 116.463 68.5115 116.245 68.0633C116.028 67.6152 115.651 67.208 115.14 67.0186C114.599 66.8186 113.982 66.8817 113.409 66.993C112.836 67.1043 112.263 67.2608 111.677 67.2368C111.238 67.2189 110.813 67.1003 110.381 67.0292C109.949 66.9581 109.484 66.9382 109.088 67.1066" stroke="#003450" stroke-width="0.172646" stroke-miterlimit="10" stroke-linejoin="round"/>
<path d="M159.916 100.291V27.6694C159.916 24.1305 156.648 21.2617 152.617 21.2617H102.51C98.4781 21.2617 95.21 24.1305 95.21 27.6694V100.291" stroke="#003450" stroke-width="0.41702" stroke-miterlimit="10"/>
<path d="M92.2515 100.293H98.1664" stroke="#003450" stroke-width="0.41702" stroke-miterlimit="10"/>
<path d="M156.958 100.293H162.873" stroke="#003450" stroke-width="0.41702" stroke-miterlimit="10"/>
<path d="M96.1157 24.9199H158.979" stroke="#003450" stroke-width="0.41702" stroke-miterlimit="10" stroke-linecap="round"/>
<path d="M102.516 26.8326C102.516 26.8326 102.442 24.4062 104.544 24.4062C106.071 24.4062 106.541 25.5666 106.186 26.5446C105.795 27.6206 104.145 27.5232 104.285 30.1077M104.285 30.1077C104.285 30.1077 92.023 34.9242 92.0869 36.3293C92.1509 37.7345 116.165 38.0155 116.165 36.526C116.165 35.0364 104.285 30.1077 104.285 30.1077Z" stroke="#003450" stroke-width="0.172646" stroke-miterlimit="10" stroke-linejoin="round"/>
<path d="M144.415 26.8326C144.415 26.8326 144.341 24.4062 146.442 24.4062C147.969 24.4062 148.439 25.5666 148.084 26.5446C147.694 27.6206 146.044 27.5232 146.184 30.1077M146.184 30.1077C146.184 30.1077 133.921 34.9242 133.985 36.3293C134.049 37.7345 158.063 38.0155 158.063 36.526C158.063 35.0364 146.184 30.1077 146.184 30.1077Z" stroke="#003450" stroke-width="0.172646" stroke-miterlimit="10" stroke-linejoin="round"/>
<path d="M117.193 26.8326C117.193 26.8326 117.119 24.4062 119.22 24.4062C120.747 24.4062 121.217 25.5666 120.862 26.5446C120.472 27.6206 118.822 27.5232 118.962 30.1077M118.962 30.1077C118.962 30.1077 106.699 34.9242 106.763 36.3293C106.827 37.7345 130.841 38.0155 130.841 36.526C130.841 35.0364 118.962 30.1077 118.962 30.1077Z" stroke="#003450" stroke-width="0.172646" stroke-miterlimit="10" stroke-linejoin="round"/>
<path d="M182.394 19.6013C181.938 20.2594 181.403 21.0225 181.708 21.7443C181.892 22.1792 182.357 22.4848 182.856 22.6363C183.355 22.7877 183.892 22.807 184.419 22.8246C185.009 22.8446 185.604 22.8641 186.184 22.7721C186.765 22.6804 187.337 22.4668 187.736 22.0855C188.273 21.5719 188.422 20.8394 188.511 20.1468C188.725 18.4755 188.724 16.7853 188.564 15.1094C188.516 14.6088 188.449 14.0936 188.171 13.6548C187.777 13.0342 185.165 11.4772 184.861 12.6798C184.672 13.4282 184.682 14.2258 184.494 14.9835C184.3 15.7599 184.037 16.5226 183.708 17.263C183.348 18.0739 182.908 18.8576 182.394 19.6013Z" fill="#004869"/>
<path d="M200.529 17.3998C201.3 17.9097 202.174 18.2987 202.894 18.8631C203.614 19.4275 204.183 20.2394 204.064 21.0801C203.976 21.703 203.519 22.2491 202.957 22.6361C202.208 23.1504 201.269 23.4221 200.323 23.5061C199.378 23.5905 198.422 23.4962 197.489 23.3374C196.502 23.1696 195.486 22.9075 194.765 22.2926C194.049 21.6831 193.721 20.8084 193.497 19.9557C193.051 18.2578 192.923 16.5098 192.796 14.7711C192.737 13.9729 192.682 13.1507 192.973 12.3926C193.265 11.6316 193.909 10.9798 194.727 10.6194C195.29 10.3712 196.456 10.0643 197.053 10.3875C197.56 10.6616 197.293 11.4924 197.312 11.9259C197.372 13.2736 197.875 14.6024 198.731 15.7219C199.22 16.3623 199.827 16.935 200.529 17.3998Z" fill="#004869"/>
<path d="M198.534 78.449C198.534 78.449 207.631 87.5389 208.244 89.3958C208.858 91.2528 212.762 88.6035 213.101 87.5425C213.101 87.5425 208.101 77.1834 205.605 75.0703L198.534 78.449Z" fill="#FFBC96"/>
<path d="M184.085 80.2165C184.085 80.2165 185.296 93.0684 183.494 94.2526C181.73 95.4113 188.642 96.7238 189.776 96.2521C189.776 96.2521 188.838 93.5912 190.785 79.2285L184.085 80.2165Z" fill="#FFBC96"/>
<path d="M180.219 44.4219C180.219 44.6956 177.931 54.6471 178.763 62.5899C179.2 66.7619 180.441 74.5219 181.52 80.9499C184.872 83.4828 191.95 80.6718 191.95 80.6718L192.492 65.7852L190.878 45.2932L180.219 44.4219Z" fill="#3B9CFD"/>
<path d="M188.399 43.9926C188.399 43.9926 189.76 59.5244 191.046 67.3435C191.244 68.5341 191.438 69.5476 191.625 70.2974C191.911 71.4524 192.666 72.8297 193.689 74.284C194.971 76.1204 196.674 78.0873 198.395 79.9107C199.86 81.4711 208.284 76.6406 206.657 74.2987C204.244 70.8269 202.186 68.6593 202.186 68.6593C202.186 68.6593 203.161 54.7942 202.897 50.1382C202.629 45.4789 199.169 41.3281 199.169 41.3281L188.399 43.9926Z" fill="#3B9CFD"/>
<path d="M193.945 13.2402V21.2179L190.284 25.4364L187.047 20.7302L187.799 16.2536L193.945 13.2402Z" fill="#FFBC96"/>
<path d="M187.356 20.168C187.356 20.168 188.119 21.5725 190.787 21.5602C192.876 21.5509 193.946 20.168 193.946 20.168L198.395 27.837L197.959 39.111C197.959 39.111 194.896 42.4591 190.497 42.5412C188.081 42.5864 185.298 40.2112 182.316 39.111L182.123 27.5177L187.356 20.168Z" fill="white"/>
<path d="M182.758 33.5652L175.67 33.1765C176.892 27.9508 180.015 21.7391 180.784 21.0272C181.805 20.0808 187.356 20.1681 187.356 20.1681L183.342 32.0603L182.758 33.5652Z" fill="white"/>
<path d="M183.935 13.2221C183.997 15.2332 184.7 17.0831 187.025 17.2668C192.31 17.6817 193.913 15.0242 194.268 11.9481C194.624 8.87198 192.963 6.47487 189.873 6.42338C186.786 6.36857 184.825 7.82956 184.825 7.82956C184.825 7.82956 184.1 9.94995 183.956 12.183C183.931 12.5301 183.924 12.8776 183.935 13.2221Z" fill="#FFBC96"/>
<path d="M188.415 11.5C188.405 12.0146 188.216 12.5255 187.882 12.9484C187.834 13.0102 187.781 13.0719 187.76 13.1447C187.715 13.2972 187.827 13.4579 187.978 13.5423C188.13 13.6267 188.313 13.651 188.491 13.6739" stroke="#003450" stroke-width="0.172646" stroke-miterlimit="10" stroke-linejoin="round"/>
<path d="M190.403 13.9375C190.138 14.6142 189.394 15.1254 188.582 15.1892" stroke="#003450" stroke-width="0.172646" stroke-miterlimit="10" stroke-linejoin="round"/>
<path d="M190.546 14.9766C190.4 15.1938 190.197 15.3818 189.958 15.522" stroke="#003450" stroke-width="0.172646" stroke-miterlimit="10" stroke-linejoin="round"/>
<path d="M187.623 17.3095C187.623 17.3095 191.51 17.6709 193.283 15.1914" stroke="#003450" stroke-width="0.172646" stroke-miterlimit="10" stroke-linejoin="round"/>
<path d="M189.81 9.63542C189.727 9.9344 191.056 10.443 191.209 10.0992C191.362 9.75501 189.894 9.33645 189.81 9.63542Z" fill="#003450"/>
<path d="M187.047 9.53231C187.218 9.78345 185.637 10.5528 185.416 10.2133C185.194 9.87381 186.805 9.17587 187.047 9.53231Z" fill="#003450"/>
<path opacity="0.3" d="M192.112 13.348C192.789 13.348 193.339 13.0607 193.339 12.7063C193.339 12.3518 192.789 12.0645 192.112 12.0645C191.435 12.0645 190.886 12.3518 190.886 12.7063C190.886 13.0607 191.435 13.348 192.112 13.348Z" fill="#1D1D1B"/>
<path opacity="0.3" d="M183.935 13.2209C184.136 13.2979 184.389 13.3464 184.668 13.3464C185.342 13.3464 185.892 13.0601 185.892 12.706C185.892 12.3522 185.342 12.0625 184.668 12.0625C184.4 12.0625 184.154 12.1077 183.956 12.1818C183.931 12.5289 183.924 12.8764 183.935 13.2209Z" fill="#1D1D1B"/>
<path d="M195.072 6.11897C195.199 5.65324 195.851 5.32071 196.629 5.1875" stroke="#003450" stroke-width="0.172646" stroke-miterlimit="10" stroke-linejoin="round"/>
<path d="M195.077 6.10396C195.176 5.46814 195.167 4.82004 195.056 4.18555" stroke="#003450" stroke-width="0.172646" stroke-miterlimit="10" stroke-linejoin="round"/>
<path d="M170.963 46.5801L193.338 46.5801L193.338 33.2797L170.963 33.2797L170.963 46.5801Z" fill="#F3B162"/>
<path d="M170.963 37.5859H193.282" stroke="#003450" stroke-width="0.172646" stroke-miterlimit="10" stroke-linejoin="round"/>
<path d="M177.714 43.6737L187.643 41.7266L186.941 38.9677L177.012 40.9148L177.714 43.6737Z" fill="white"/>
<path d="M189.402 43.125C189.402 43.125 187.837 43.5206 187.403 43.5206C186.969 43.5206 185.102 42.8357 183.931 43.3004C182.76 43.7651 182.537 44.6215 182.649 44.793C182.761 44.9644 185.464 44.108 185.771 44.6215C186.077 45.1354 183.429 46.5845 183.429 46.5845H181.06C181.06 46.5845 181.924 48.0225 183.54 47.5824C183.54 47.5824 184.155 48.3165 185.311 47.8272C185.311 47.8272 186.276 48.4388 187.403 47.0931C188.53 45.7473 190.154 45.5773 190.154 45.5773C190.154 45.5773 203.297 42.8121 206.249 40.1715C206.61 39.8486 206.856 38.9035 206.89 38.4524C207.015 36.7658 205.292 32.3477 205.292 32.3477L199.861 33.6246L200.768 37.0668L189.402 43.125Z" fill="#FFBC96"/>
<path d="M199.249 34.927L206.253 33.2637C205.278 28.3486 202.327 21.9063 201.536 21.1732C200.515 20.2268 193.945 20.168 193.945 20.168L197.959 32.0602L199.249 34.927Z" fill="white"/>
<path d="M181.626 27.5039C181.626 27.5039 180.899 32.1643 180.783 32.724" stroke="#003450" stroke-width="0.172646" stroke-miterlimit="10" stroke-linejoin="round"/>
<path d="M198.145 32.3465L198.394 27.8359" stroke="#003450" stroke-width="0.172646" stroke-miterlimit="10" stroke-linejoin="round"/>
<path d="M170.963 43.668C170.963 43.668 170.153 44.2972 169.925 45.012C169.696 45.7269 169.338 47.0424 169.794 47.7573C170.25 48.4721 173.248 48.6907 174.453 47.9951C175.658 47.2995 176.505 45.9202 176.082 45.5376C175.658 45.1549 174.323 46.4989 174.323 46.4989L174.017 46.4793C174.017 46.4793 175.77 44.251 175.004 44.0208C174.238 43.7906 172.647 46.4086 172.647 46.4086L172.264 46.4262C172.264 46.4262 173.775 44.1271 173.17 44.0032C172.566 43.8792 171.115 46.3023 171.115 46.3023L170.963 43.668Z" fill="#FFBC96"/>
<path d="M173.407 100.078C173.411 100.416 173.579 100.622 173.579 100.622C173.579 100.622 190.082 100.622 190.115 100.622C190.254 100.622 190.32 100.355 190.342 100.078C190.346 100.02 190.35 99.962 190.353 99.9075C190.364 99.6982 190.36 99.5149 190.36 99.4604C190.36 98.7455 190.406 98.0366 190.359 97.3187C190.303 96.4869 190.176 95.6634 190.032 94.8416C189.987 94.5818 189.957 94.315 189.865 94.0636C189.854 94.0307 189.568 93.5125 189.455 93.6865C186.58 98.207 185.093 92.6421 183.653 93.733C183.653 93.733 183.264 94.2061 181.886 95.2326C180.507 96.2527 179.038 96.4168 177.04 97.1021C174.459 97.9901 173.579 99.2129 173.436 99.8245C173.429 99.8534 173.422 99.8793 173.418 99.9082C173.407 99.9686 173.407 100.026 173.407 100.078Z" fill="white"/>
<path d="M181.444 95.5234C181.698 95.7972 181.952 96.0706 182.206 96.3443" stroke="#003450" stroke-width="0.172646" stroke-miterlimit="10" stroke-linejoin="round"/>
<path d="M180.5 96.0176C180.754 96.2913 181.008 96.5647 181.262 96.8384" stroke="#003450" stroke-width="0.172646" stroke-miterlimit="10" stroke-linejoin="round"/>
<path d="M179.413 96.3164C179.667 96.5901 179.921 96.8635 180.175 97.1373" stroke="#003450" stroke-width="0.172646" stroke-miterlimit="10" stroke-linejoin="round"/>
<path d="M178.327 96.6289C178.581 96.9026 178.834 97.176 179.088 97.4498" stroke="#003450" stroke-width="0.172646" stroke-miterlimit="10" stroke-linejoin="round"/>
<path d="M189.595 95.8516C188.243 96.6761 187.434 98.0723 187.506 99.4572" stroke="#003450" stroke-width="0.172646" stroke-miterlimit="10" stroke-linejoin="round"/>
<path d="M176.12 97.5234C176.976 97.9772 177.563 98.7622 177.668 99.5973" stroke="#003450" stroke-width="0.172646" stroke-miterlimit="10" stroke-linejoin="round"/>
<path d="M173.408 100.077C173.412 100.415 173.58 100.62 173.58 100.62C173.58 100.62 190.082 100.62 190.116 100.62C190.255 100.62 190.321 100.353 190.343 100.077C190.347 100.019 190.35 99.9607 190.354 99.9062H173.419C173.408 99.9674 173.408 100.025 173.408 100.077Z" fill="#003450"/>
<path d="M189.863 96.4004C188.8 97.106 188.186 98.3012 188.287 99.4675" stroke="#003450" stroke-width="0.172646" stroke-miterlimit="10" stroke-linejoin="round"/>
<path d="M205.562 99.4558C205.837 99.692 206.123 99.7325 206.123 99.7325C206.123 99.7325 217.771 89.4714 217.795 89.4508C217.893 89.3641 217.724 89.1346 217.516 88.9256C217.472 88.8824 217.428 88.8393 217.387 88.7984C217.226 88.6439 217.075 88.5167 217.031 88.4782C216.454 87.9736 215.914 87.4447 215.301 86.9677C214.591 86.4149 213.837 85.913 213.072 85.422C212.83 85.2668 212.594 85.0971 212.326 84.9762C212.291 84.9606 211.671 84.7722 211.732 84.9655C213.351 89.9441 207.811 86.9404 207.674 88.6061C207.674 88.6061 207.781 89.1814 207.637 90.763C207.487 92.3399 206.582 93.3697 205.725 95.0958C204.62 97.3271 204.986 98.7373 205.378 99.2578C205.397 99.2828 205.412 99.3057 205.433 99.3283C205.474 99.3784 205.521 99.4193 205.562 99.4558Z" fill="white"/>
<path d="M207.562 91.248C207.962 91.2833 208.362 91.3185 208.761 91.354" stroke="#003450" stroke-width="0.172646" stroke-miterlimit="10" stroke-linejoin="round"/>
<path d="M207.292 92.1777C207.692 92.2129 208.092 92.2482 208.492 92.2837" stroke="#003450" stroke-width="0.172646" stroke-miterlimit="10" stroke-linejoin="round"/>
<path d="M206.764 93.0684C207.164 93.1036 207.564 93.1388 207.964 93.1743" stroke="#003450" stroke-width="0.172646" stroke-miterlimit="10" stroke-linejoin="round"/>
<path d="M206.25 93.9629C206.65 93.9981 207.05 94.0333 207.45 94.0689" stroke="#003450" stroke-width="0.172646" stroke-miterlimit="10" stroke-linejoin="round"/>
<path d="M213.581 86.4102C213.292 87.8329 213.848 89.3212 215.016 90.2543" stroke="#003450" stroke-width="0.172646" stroke-miterlimit="10" stroke-linejoin="round"/>
<path d="M205.415 95.9684C206.386 95.7558 207.434 95.9455 208.182 96.4693" stroke="#003450" stroke-width="0.172646" stroke-miterlimit="10" stroke-linejoin="round"/>
<path d="M205.563 99.4563C205.838 99.6924 206.123 99.733 206.123 99.733C206.123 99.733 217.772 89.4719 217.795 89.4513C217.893 89.3646 217.724 89.135 217.517 88.9261C217.473 88.8829 217.429 88.8397 217.387 88.7988L205.433 99.329C205.475 99.3789 205.521 99.4197 205.563 99.4563Z" fill="#003450"/>
<path d="M214.21 86.6309C214.029 87.7899 214.56 89.0157 215.572 89.7764" stroke="#003450" stroke-width="0.172646" stroke-miterlimit="10" stroke-linejoin="round"/>
<path d="M201.785 46.63C200.203 46.3283 198.778 45.4391 197.935 44.2266" stroke="#003450" stroke-width="0.172646" stroke-miterlimit="10" stroke-linejoin="round"/>
<path d="M192.054 71.5033C192.054 71.5033 191.711 69.8247 190.462 63.341C189.212 56.8572 189.031 53.7715 189.031 53.7715" stroke="#003450" stroke-width="0.172646" stroke-miterlimit="10" stroke-linejoin="round"/>
<path d="M184.081 74.7889C185.628 74.5633 186.555 72.6516 186.151 70.519C185.747 68.3864 184.166 66.8405 182.619 67.0661C181.072 67.2917 180.145 69.2034 180.549 71.336C180.952 73.4686 182.534 75.0145 184.081 74.7889Z" stroke="white" stroke-width="0.172646" stroke-miterlimit="10" stroke-linejoin="round"/>
<path d="M194.337 74.352C194.55 74.3457 194.758 74.3095 194.958 74.2417C196.42 73.7431 196.879 71.7031 195.984 69.6887C195.09 67.6742 193.18 66.4485 191.721 66.9471" stroke="white" stroke-width="0.172646" stroke-miterlimit="10" stroke-linejoin="round"/>
<path d="M190.476 11.1284C190.564 11.229 190.565 11.3722 190.515 11.4908C190.465 11.606 190.368 11.708 190.239 11.7565C189.924 11.8758 189.577 11.5941 189.689 11.3101C189.789 11.0556 190.262 10.8829 190.476 11.1284Z" fill="#003450"/>
<path d="M187.036 11.1284C187.124 11.229 187.125 11.3722 187.075 11.4908C187.025 11.606 186.928 11.708 186.799 11.7565C186.484 11.8758 186.137 11.5941 186.249 11.3101C186.349 11.0556 186.822 10.8829 187.036 11.1284Z" fill="#003450"/>
<path d="M194.232 11.7247C193.471 11.6041 192.839 11.1065 192.456 10.5162C192.074 9.92585 191.908 9.24817 191.787 8.5778C191.402 8.74822 191.016 9.03357 190.619 9.18007C190.222 9.32657 189.761 9.39533 189.363 9.25215C188.964 9.10898 188.671 8.7037 188.807 8.3446C188.228 8.85585 187.44 9.1515 186.647 9.33986C186.153 9.45712 185.592 9.49499 185.157 9.25681C184.484 8.88741 184.267 7.98019 184.334 7.34171C184.424 6.47004 184.86 5.62859 185.536 4.98613C186.454 4.11312 187.784 3.60553 189.135 3.52979C190.374 3.46003 191.55 3.7517 192.65 4.23238C193.128 4.441 193.586 4.61905 194.013 4.91437C194.238 5.06951 194.448 5.23993 194.642 5.42396C194.719 5.49638 195.046 5.95181 195.128 5.95746C196.36 6.04549 197.346 6.80489 197.918 7.76725C198.489 8.72962 198.505 9.9182 198.023 10.9178C197.684 11.621 197.069 12.2595 196.241 12.4934C195.413 12.7272 194.613 12.4113 194.232 11.7247Z" fill="#004869"/>
<path d="M193.848 12.2358C193.848 12.2358 195.09 10.428 195.973 11.5472C196.413 12.1053 196.403 12.9338 196.002 13.5168C195.492 14.2592 194.508 14.2659 193.619 14.216L193.848 12.2358Z" fill="#FFBC96"/>
<path d="M195.76 11.9079C195.54 11.8106 195.274 11.7973 195.042 11.8724C194.811 11.9475 194.618 12.1099 194.523 12.3096" stroke="#003450" stroke-width="0.172646" stroke-miterlimit="10" stroke-linejoin="round"/>
<path d="M194.958 11.9453C195.192 12.1257 195.33 12.3981 195.326 12.6715" stroke="#003450" stroke-width="0.172646" stroke-miterlimit="10" stroke-linejoin="round"/>
<path d="M205.741 32.5L199.345 34.0284" stroke="#003450" stroke-width="0.172646" stroke-miterlimit="10" stroke-linejoin="round"/>
<path d="M194.542 20.5645C194.542 20.5645 193.357 22.5659 190.546 22.5659C187.736 22.5659 186.673 20.5645 186.673 20.5645" stroke="#003450" stroke-width="0.172646" stroke-miterlimit="10" stroke-linejoin="round"/>
<path d="M193.945 25.7033C191.515 25.311 190.884 27.5456 190.884 27.5456C190.884 27.5456 189.532 25.6568 188.399 25.6568C188.399 25.6568 186.764 25.5216 186.253 27.25C185.508 30.749 190.497 32.7222 190.497 32.7222C195.258 31.3439 196.376 26.0959 193.945 25.7033Z" fill="#FF6862"/>
<path d="M168.156 79.4492H134.124V100.623H168.156V79.4492Z" fill="#FFC900"/>
<path d="M142.64 81.6113H136.542V88.3941H142.64V81.6113Z" stroke="#003450" stroke-width="0.172646" stroke-miterlimit="10" stroke-linejoin="round"/>
<path d="M161.835 86.6688H172.583L168.155 79.4492H157.408L161.835 86.6688Z" fill="#FFC900"/>
<path d="M172.583 86.6688H161.835L157.408 79.4492V100.623" stroke="#003450" stroke-width="0.172646" stroke-miterlimit="10" stroke-linejoin="round"/>
<path d="M61.5977 72.6797H83.39C84.1253 72.6797 84.721 73.2029 84.721 73.848V74.2453C84.721 74.8908 84.1249 75.4136 83.39 75.4136H61.5977C60.8624 75.4136 60.2667 74.8904 60.2667 74.2453V73.848C60.2667 73.2029 60.8628 72.6797 61.5977 72.6797Z" fill="#3B9CFD"/>
<path d="M61.5977 69.9434H83.39C84.1253 69.9434 84.721 70.4666 84.721 71.1117V71.509C84.721 72.1544 84.1249 72.6773 83.39 72.6773H61.5977C60.8624 72.6773 60.2667 72.1541 60.2667 71.509V71.1117C60.2667 70.4666 60.8628 69.9434 61.5977 69.9434Z" fill="#FF6862"/>
<path d="M61.5976 67.209H83.3899C84.1252 67.209 84.7209 67.7322 84.7209 68.3773V68.7746C84.7209 69.4201 84.1249 69.9429 83.3899 69.9429H61.5976C60.8623 69.9429 60.2667 69.4197 60.2667 68.7746V68.3773C60.2667 67.7322 60.8627 67.209 61.5976 67.209Z" fill="#FF6862"/>
<path d="M83.1635 67.209C83.1635 67.209 85.1476 67.1675 85.2309 69.943C85.3141 72.7184 83.1635 72.6769 83.1635 72.6769V67.209Z" fill="#FF6862"/>
<path d="M61.8243 69.9453H78.043" stroke="#003450" stroke-width="0.172646" stroke-miterlimit="10" stroke-linejoin="round"/>
<path d="M83.164 72.6797H61.8243" stroke="#003450" stroke-width="0.172646" stroke-miterlimit="10" stroke-linejoin="round"/>
<path d="M82.3157 74.2789C82.3157 74.2789 80.6192 74.7343 78.0432 74.7343C75.4671 74.7343 72.5872 73.668 69.7244 73.668" stroke="#003450" stroke-width="0.172646" stroke-miterlimit="10" stroke-linejoin="round"/>
<path d="M95.5591 81.4813H108.653L104.226 74.2617H91.1313L95.5591 81.4813Z" fill="#FFC900"/>
<path d="M104.226 74.2617H57.6006V100.621H104.226V74.2617Z" fill="#FFC900"/>
<path d="M57.6015 74.2617L50.6348 82.4639H57.6015V74.2617Z" fill="#FFC900"/>
<path d="M85.0426 81.5195H62.1785V88.7075H85.0426V81.5195Z" fill="white"/>
<path d="M91.1313 100.533V74.2617L95.5591 81.4813H108.653" stroke="#003450" stroke-width="0.172646" stroke-miterlimit="10" stroke-linejoin="round"/>
<path d="M57.6006 82.4639V74.2617" stroke="#003450" stroke-width="0.172646" stroke-miterlimit="10" stroke-linejoin="round"/>
<path d="M49.4475 100.011C49.4433 100.396 49.2549 100.63 49.2549 100.63C49.2549 100.63 30.8121 100.63 30.7754 100.63C30.6199 100.63 30.5461 100.326 30.5215 100.011C30.5173 99.9454 30.5132 99.8793 30.5094 99.8169C30.4969 99.5787 30.501 99.3697 30.501 99.3076C30.501 98.4937 30.45 97.6865 30.5033 96.869C30.565 95.9219 30.7077 94.9844 30.8681 94.0483C30.9188 93.7523 30.9521 93.4487 31.0543 93.1624C31.0676 93.1252 31.387 92.5349 31.5138 92.7332C34.7267 97.8805 36.388 91.5443 37.9979 92.7863C37.9979 92.7863 38.4323 93.3248 39.9726 94.4938C41.5128 95.6551 43.1556 95.8422 45.3884 96.6225C48.2725 97.6337 49.2556 99.0259 49.4153 99.7222C49.4237 99.7551 49.4316 99.7846 49.4358 99.8175C49.4475 99.8866 49.4475 99.9527 49.4475 100.011Z" fill="#FF6862"/>
<path d="M40.4665 94.8223C40.1826 95.1339 39.8992 95.4455 39.6154 95.7567" stroke="#003450" stroke-width="0.172646" stroke-miterlimit="10" stroke-linejoin="round"/>
<path d="M41.521 95.3809C41.2371 95.6925 40.9537 96.0041 40.6699 96.3153" stroke="#003450" stroke-width="0.172646" stroke-miterlimit="10" stroke-linejoin="round"/>
<path d="M42.7366 95.7207C42.4528 96.0323 42.1693 96.3439 41.8855 96.6552" stroke="#003450" stroke-width="0.172646" stroke-miterlimit="10" stroke-linejoin="round"/>
<path d="M43.9514 96.0762C43.6676 96.3878 43.3842 96.6994 43.1003 97.0106" stroke="#003450" stroke-width="0.172646" stroke-miterlimit="10" stroke-linejoin="round"/>
<path d="M31.3562 95.1953C32.8673 96.1341 33.771 97.724 33.6904 99.3009" stroke="#003450" stroke-width="0.172646" stroke-miterlimit="10" stroke-linejoin="round"/>
<path d="M46.4171 97.0957C45.4593 97.6126 44.8042 98.5065 44.6865 99.4573" stroke="#003450" stroke-width="0.172646" stroke-miterlimit="10" stroke-linejoin="round"/>
<path d="M49.446 100.005C49.4418 100.39 49.2534 100.624 49.2534 100.624C49.2534 100.624 30.8106 100.624 30.7739 100.624C30.6184 100.624 30.5446 100.32 30.52 100.005C30.5158 99.9391 30.5117 99.873 30.5079 99.8105H49.4339C49.446 99.8803 49.446 99.9464 49.446 100.005Z" fill="#003450"/>
<path d="M11.8889 93.7609V90.5762H18.0915V94.3336L14.9902 95.7175L11.8889 93.7609Z" fill="#FFBC96"/>
<path d="M0 100.011C0.00416281 100.396 0.192626 100.63 0.192626 100.63C0.192626 100.63 18.6354 100.63 18.6721 100.63C18.8276 100.63 18.9014 100.326 18.926 100.011C18.9302 99.9454 18.9344 99.8793 18.9381 99.8169C18.9506 99.5787 18.9465 99.3697 18.9465 99.3076C18.9465 98.4937 18.9975 97.6865 18.9442 96.869C18.8825 95.9219 18.7398 94.9844 18.5794 94.0483C18.5287 93.7523 18.4954 93.4487 18.3932 93.1624C18.3799 93.1252 18.0605 92.5349 17.9338 92.7332C14.7208 97.8805 13.0595 91.5443 11.4496 92.7863C11.4496 92.7863 11.0152 93.3248 9.47493 94.4938C7.93469 95.6551 6.2919 95.8422 4.05912 96.6225C1.17505 97.6337 0.191867 99.0259 0.0321668 99.7222C0.0238412 99.7551 0.0158937 99.7846 0.0117309 99.8175C-6.69649e-07 99.8866 0 99.9527 0 100.011Z" fill="#FF6862"/>
<path d="M8.98151 94.8223C9.26533 95.1339 9.54878 95.4455 9.83261 95.7567" stroke="#003450" stroke-width="0.172646" stroke-miterlimit="10" stroke-linejoin="round"/>
<path d="M7.927 95.3809C8.21083 95.6925 8.49428 96.0041 8.77811 96.3153" stroke="#003450" stroke-width="0.172646" stroke-miterlimit="10" stroke-linejoin="round"/>
<path d="M6.71136 95.7207C6.99519 96.0323 7.27864 96.3439 7.56247 96.6552" stroke="#003450" stroke-width="0.172646" stroke-miterlimit="10" stroke-linejoin="round"/>
<path d="M5.49573 96.0762C5.77956 96.3878 6.06301 96.6994 6.34683 97.0106" stroke="#003450" stroke-width="0.172646" stroke-miterlimit="10" stroke-linejoin="round"/>
<path d="M18.0918 95.1953C16.5807 96.1341 15.677 97.724 15.7576 99.3009" stroke="#003450" stroke-width="0.172646" stroke-miterlimit="10" stroke-linejoin="round"/>
<path d="M3.03094 97.0957C3.98877 97.6126 4.64384 98.5065 4.76154 99.4573" stroke="#003450" stroke-width="0.172646" stroke-miterlimit="10" stroke-linejoin="round"/>
<path d="M0.000793457 100.005C0.00495627 100.39 0.193419 100.624 0.193419 100.624C0.193419 100.624 18.6362 100.624 18.6729 100.624C18.8284 100.624 18.9022 100.32 18.9268 100.005C18.931 99.9391 18.9351 99.873 18.9389 99.8105H0.0129026C0.000792579 99.8803 0.000793457 99.9464 0.000793457 100.005Z" fill="#003450"/>
<path d="M37.5593 93.7609V90.5762H31.3563V94.3336L34.4576 95.7175L37.5593 93.7609Z" fill="#FFBC96"/>
<path d="M36.4323 40.9042C36.4323 40.9042 38.3211 54.5095 39.078 63.6588C39.8345 72.808 41.52 94.7361 41.52 94.7361C41.52 94.7361 38.1179 97.0067 29.9311 95.5135L25.2343 54.3295L19.6305 96.0576C19.6305 96.0576 13.0903 97.3538 6.71136 95.0205L16.019 40.4238L36.4323 40.9042Z" fill="#004869"/>
<path d="M19.2499 43.4375C18.6826 45.3446 17.1908 47.0259 15.2225 47.9749" stroke="white" stroke-width="0.172646" stroke-miterlimit="10" stroke-linejoin="round"/>
<path d="M13.183 31.5108C13.183 31.5108 10.492 35.2905 10.492 36.0934C10.492 36.8963 11.9452 38.5028 12.4833 39.8256C13.0214 41.1484 13.8828 43.8886 14.3131 43.983C14.7437 44.0773 17.4976 43.8136 17.767 44.7108C17.9025 45.1626 17.6032 45.5802 17.602 46.0429C17.6013 46.3954 17.7924 46.8438 17.6384 47.1827C17.5218 47.4395 17.3069 47.7208 17.1483 47.9647C17.0249 48.154 16.8876 48.3513 16.6628 48.4566C16.5311 48.5184 16.388 48.5626 16.2662 48.638C16.1053 48.7373 15.9922 48.8838 15.8612 49.0127C15.1657 49.6954 13.8014 49.6014 13.0286 49.0941C12.2373 48.5749 11.7654 47.7474 11.2882 47.0103C10.369 45.5895 7.30212 42.1709 6.56985 40.9952C5.83757 39.8196 4.12439 37.7142 4.46725 35.1988C4.80974 32.6834 7.48869 28.9648 7.48869 28.9648L13.183 31.5108Z" fill="#FFBC96"/>
<path d="M39.078 28.5018C39.078 28.5018 42.5108 31.9457 44.9139 32.0317C47.317 32.1178 60.5093 26.5216 60.5093 26.5216C60.5093 26.5216 63.2556 26.8661 64.3837 26.6937C65.5118 26.5213 67.1792 26.1771 67.13 25.2732C67.0808 24.3693 64.5797 25.1872 64.0893 25.058C63.5988 24.9288 63.1084 23.5083 63.5008 23.0778C63.8933 22.6472 66.1979 23.0362 66.2471 23.3797C66.2963 23.7236 66.3232 24.7138 66.6899 25.1636C67.0566 25.6134 67.2231 25.9622 67.5997 24.5301C67.9762 23.098 68.1329 22.8226 67.9762 22.4094C67.8192 21.9962 65.8426 21.4178 64.5563 21.0876C63.27 20.7574 62.7364 20.4817 62.1403 20.6471C61.5443 20.8122 58.846 23.2635 57.9049 23.8418C56.9637 24.4202 53.9203 24.2551 51.8495 24.6404C49.7787 25.0261 46.453 26.0725 46.014 26.1276C45.5746 26.1828 43.0963 23.9245 43.0963 23.9245L39.078 28.5018Z" fill="#FFBC96"/>
<path d="M20.3272 10.0078L20.77 17.5968L23.9886 22.2036L27.6678 17.4974L26.9162 13.0208L20.3272 10.0078Z" fill="#FFBC96"/>
<path d="M29.9582 9.60425C29.8958 11.6153 29.5779 13.9188 27.2482 14.0364C20.1658 14.3938 20.3607 11.7937 20.0049 8.71762C19.6492 5.64151 21.3098 3.2444 24.4001 3.19291C27.4866 3.1381 29.4477 4.59909 29.4477 4.59909C29.4477 4.59909 29.8398 5.71725 29.9828 7.95025C30.0082 8.2974 29.9692 9.25976 29.9582 9.60425Z" fill="#FFBC96"/>
<path d="M25.8586 8.27148C25.8692 8.78605 26.0573 9.29697 26.3914 9.71985C26.4402 9.78164 26.4928 9.84343 26.514 9.91618C26.5583 10.0687 26.4467 10.2294 26.2953 10.3138C26.1435 10.3979 25.9604 10.4224 25.7829 10.4454" stroke="#003450" stroke-width="0.172646" stroke-miterlimit="10" stroke-linejoin="round"/>
<path d="M23.426 11.0977C23.6913 11.7743 24.4357 12.2856 25.2478 12.3494" stroke="#003450" stroke-width="0.172646" stroke-miterlimit="10" stroke-linejoin="round"/>
<path d="M23.7263 12.1328C23.8727 12.3501 24.0756 12.5381 24.3147 12.6783" stroke="#003450" stroke-width="0.172646" stroke-miterlimit="10" stroke-linejoin="round"/>
<path d="M24.4621 6.79553C24.5457 7.09451 23.217 7.6031 23.0634 7.25928C22.9101 6.91546 24.3785 6.49656 24.4621 6.79553Z" fill="#003450"/>
<path d="M27.224 6.69439C27.0534 6.94553 28.6345 7.71489 28.8559 7.37539C29.0776 7.03622 27.4666 6.33795 27.224 6.69439Z" fill="#003450"/>
<path opacity="0.3" d="M23.388 9.47578C23.388 9.12133 22.8389 8.83398 22.1611 8.83398C21.4833 8.83398 20.9342 9.12133 20.9342 9.47578C20.9342 9.83023 21.4833 10.1176 22.1611 10.1176C22.8389 10.1176 23.388 9.83023 23.388 9.47578Z" fill="#1D1D1B"/>
<path opacity="0.3" d="M30.3375 9.99234C30.1358 10.0694 29.883 10.1179 29.6045 10.1179C28.9301 10.1179 28.3802 9.83156 28.3802 9.47744C28.3802 9.12366 28.9301 8.83398 29.6045 8.83398C29.872 8.83398 30.1177 8.87916 30.3156 8.95324C30.3413 9.30071 30.3485 9.64819 30.3375 9.99234Z" fill="#1D1D1B"/>
<path d="M23.7959 7.89961C23.7081 8.00027 23.707 8.14344 23.7577 8.26204C23.8069 8.37731 23.9042 8.47929 24.0332 8.52779C24.3484 8.64705 24.6951 8.36535 24.5835 8.08132C24.4835 7.82719 24.0101 7.65445 23.7959 7.89961Z" fill="#003450"/>
<path d="M27.2367 7.89961C27.1489 8.00027 27.1477 8.14344 27.1984 8.26204C27.2476 8.37731 27.3449 8.47929 27.4739 8.52779C27.7892 8.64705 28.1358 8.36535 28.0242 8.08132C27.9243 7.82719 27.4509 7.65445 27.2367 7.89961Z" fill="#003450"/>
<path d="M26.9683 14.0724C26.9683 14.0724 23.2525 14.4897 21.6237 13.1284C21.2309 12.8001 20.9304 12.4158 20.701 12.0215" stroke="#003450" stroke-width="0.172646" stroke-miterlimit="10" stroke-linejoin="round"/>
<path d="M27.8394 5.67927C27.8394 5.67927 28.736 7.76844 30.3428 7.78007C31.9496 7.79169 32.8961 5.67927 31.5171 2.87821C30.1381 0.0774907 23.5945 -1.32304 20.701 1.69129C20.701 1.69129 18.3217 1.43949 17.9698 3.19148C17.6178 4.94346 17.734 7.22929 18.5117 9.07728L19.9819 8.4883C19.9819 8.4883 21.3224 7.83886 21.9173 5.48893C21.9173 5.48893 22.2284 6.34333 24.0195 6.29582C24.7658 6.27589 25.0322 5.7002 25.0893 5.03482C25.0893 5.03482 25.3773 6.34333 26.6489 6.36724C27.9204 6.39149 27.8394 5.67927 27.8394 5.67927Z" fill="#FFA300"/>
<path d="M20.4257 9.00535C20.4257 9.00535 19.1832 7.19755 18.3007 8.31671C17.8606 8.8748 17.8701 9.70329 18.2708 10.2863C18.781 11.0287 19.7653 11.0354 20.6546 10.9856L20.4257 9.00535Z" fill="#FFBC96"/>
<path d="M18.512 8.67747C18.7322 8.58014 18.9986 8.56685 19.2299 8.64193C19.4611 8.717 19.6537 8.87944 19.7487 9.07909" stroke="#003450" stroke-width="0.172646" stroke-miterlimit="10" stroke-linejoin="round"/>
<path d="M19.3143 8.7168C19.0804 8.89718 18.9423 9.16958 18.9464 9.44297" stroke="#003450" stroke-width="0.172646" stroke-miterlimit="10" stroke-linejoin="round"/>
<path d="M20.7011 16.4149C20.7011 16.4149 22.0998 17.8965 24.4666 17.8965C26.8337 17.8965 27.4861 16.4149 27.4861 16.4149C27.4861 16.4149 32.276 15.4901 34.4425 16.4149C36.6091 17.3398 43.9008 24.0188 43.9008 24.0188C43.9008 24.0188 43.161 27.6829 39.3039 29.121L35.7107 26.5236C35.7107 26.5236 37.1442 30.8863 37.9961 42.0204C37.9961 42.0204 32.2219 44.0976 14.3316 42.0204C14.3316 42.0204 14.3316 34.376 15.6569 27.4796L13.4798 32.2157C13.4798 32.2157 8.65242 31.6341 6.56989 28.643C6.56989 28.643 12.3441 18.2566 14.3316 17.3428C16.3196 16.4286 20.7011 16.4149 20.7011 16.4149Z" fill="#FF6862"/>
<path d="M29.9916 34.3917L25.5802 32.1531L21.8344 34.3917L22.5042 30.0207L19.4601 27.6372L23.864 26.7941L25.5408 23.1875L27.78 26.9323L32.2997 27.2545L28.8408 30.2443L29.9916 34.3917Z" fill="white"/>
<path d="M35.7112 26.5265C35.7112 26.5265 35.6643 25.8422 34.1369 22.873" stroke="#003450" stroke-width="0.172646" stroke-miterlimit="10" stroke-linejoin="round"/>
<path d="M15.881 26.9457C16.135 25.4153 16.5433 23.9048 17.1004 22.4375" stroke="#003450" stroke-width="0.172646" stroke-miterlimit="10" stroke-linejoin="round"/>
<path d="M39.0396 28.2475C40.8167 27.1749 42.1098 25.5006 42.5874 23.6543" stroke="#003450" stroke-width="0.172646" stroke-miterlimit="10" stroke-linejoin="round"/>
<path d="M7.43457 27.7852C8.73223 29.4574 10.7864 30.6636 13.0423 31.0779" stroke="#003450" stroke-width="0.172646" stroke-miterlimit="10" stroke-linejoin="round"/>
<path d="M32.581 43.4375C33.1483 45.3446 34.6401 47.0259 36.6083 47.9749" stroke="white" stroke-width="0.172646" stroke-miterlimit="10" stroke-linejoin="round"/>
<path d="M25.2348 53.1113L25.6151 43.4375" stroke="white" stroke-width="0.172646" stroke-miterlimit="10" stroke-linejoin="round"/>
<path d="M27.7191 43.5938C27.7191 43.5938 27.5946 48.2089 27.5635 48.8098C27.5325 49.4108 27.363 50.3938 25.4254 50.421" stroke="white" stroke-width="0.172646" stroke-miterlimit="10" stroke-linejoin="round"/>
<path d="M70.0849 30.6582L66.447 35.1093C66.0761 35.5634 65.3045 35.5571 64.9427 35.0973L61.4512 30.6582" stroke="#003450" stroke-width="0.172646" stroke-miterlimit="10" stroke-linejoin="round"/>
<path d="M69.3856 30.4199C69.3856 30.4199 65.5509 31.6165 61.9811 30.4199L62.1582 33.3881L65.9282 35.7201L68.746 33.3881L69.3856 30.4199Z" fill="#A8D2E6"/>
<path d="M81.0715 42.311C81.0715 42.311 76.9545 32.3448 75.5819 31.2499C74.2097 30.1547 69.3843 30.4211 69.3843 30.4211C68.9733 31.1752 67.016 33.4687 66.1255 34.4971C65.9023 34.7549 65.4629 34.7549 65.2396 34.4971C64.3488 33.4687 62.3907 31.1752 61.9798 30.4211C61.9798 30.4211 57.1547 30.1547 55.7821 31.2499C54.4099 32.3452 50.2925 42.311 50.2925 42.311L56.2313 44.2759L55.4517 54.1464C55.4517 54.1464 60.477 56.402 66.1278 56.402C71.7786 56.402 75.9119 54.1464 75.9119 54.1464L75.1323 44.2759L81.0715 42.311Z" fill="white"/>
<path d="M56.23 44.2782L56.6856 37.3945" stroke="#003450" stroke-width="0.172646" stroke-miterlimit="10" stroke-linejoin="round"/>
<path d="M75.1311 44.2782L74.1937 37.3945" stroke="#003450" stroke-width="0.172646" stroke-miterlimit="10" stroke-linejoin="round"/>
<path d="M74.0346 47.0957C72.3505 49.91 69.1732 51.7517 66.1268 53.4708" stroke="#003450" stroke-width="0.172646" stroke-miterlimit="10" stroke-linejoin="round"/>
<path d="M57.7465 38.416C59.1316 40.3012 60.8664 41.9881 62.8618 43.3896" stroke="#003450" stroke-width="0.172646" stroke-miterlimit="10" stroke-linejoin="round"/>
<path d="M77.2656 33.9062L76.1992 34.3245L77.2656 36.4851L78.838 37.177L77.2656 33.9062Z" fill="#FF6862"/>
<path d="M77.1331 33.6505L76.0693 34.077L75.8392 33.6505L76.8977 33.209L77.1331 33.6505Z" fill="#FF6862"/>
<path d="M65.9281 29.8632C65.9289 28.6327 67.728 28.0029 68.1261 26.906C68.3255 26.3565 68.2744 25.6981 67.857 25.2311C67.751 25.1128 67.6205 25.0111 67.4941 24.9102" stroke="#003450" stroke-width="0.172646" stroke-miterlimit="10" stroke-linejoin="round"/>
<path d="M64.3848 27.2004C64.3848 27.2004 64.3095 24.7266 66.4514 24.7266" stroke="#003450" stroke-width="0.172646" stroke-miterlimit="10" stroke-linejoin="round"/>
<path d="M74.544 29.7051H57.3115" stroke="#003450" stroke-width="0.172646" stroke-miterlimit="10" stroke-linejoin="round"/>
<path d="M72.7349 28.9297H71.6693V30.9341H72.7349V28.9297Z" fill="#004869"/>
<path d="M59.5355 28.9297H58.4698V30.9341H59.5355V28.9297Z" fill="#004869"/>
</svg>
