<svg width="87" height="92" viewBox="0 0 87 92" fill="none" xmlns="http://www.w3.org/2000/svg">
<g opacity="0.75">
<circle cx="72.875" cy="24.0996" r="10.875" transform="rotate(-180 72.875 24.0996)" fill="url(#paint0_linear_2473_5040)" fill-opacity="0.4"/>
<circle cx="72.875" cy="24.0996" r="11.0625" transform="rotate(-180 72.875 24.0996)" stroke="white" stroke-opacity="0.4" stroke-width="0.375"/>
</g>
<g opacity="0.75">
<circle cx="11.375" cy="77.0996" r="10.875" transform="rotate(-180 11.375 77.0996)" fill="url(#paint1_linear_2473_5040)" fill-opacity="0.4"/>
<circle cx="11.375" cy="77.0996" r="11.0625" transform="rotate(-180 11.375 77.0996)" stroke="white" stroke-opacity="0.4" stroke-width="0.375"/>
</g>
<g opacity="0.75">
<ellipse cx="17.875" cy="48.5996" rx="6.375" ry="6.375" transform="rotate(-180 17.875 48.5996)" fill="url(#paint2_linear_2473_5040)" fill-opacity="0.4"/>
<path d="M17.875 42.0371C14.2506 42.0371 11.3125 44.9752 11.3125 48.5996C11.3125 52.224 14.2506 55.1621 17.875 55.1621C21.4994 55.1621 24.4375 52.224 24.4375 48.5996C24.4375 44.9752 21.4994 42.0371 17.875 42.0371Z" stroke="white" stroke-opacity="0.4" stroke-width="0.375"/>
</g>
<g opacity="0.75">
<ellipse cx="79.875" cy="84.5996" rx="6.375" ry="6.375" transform="rotate(-180 79.875 84.5996)" fill="url(#paint3_linear_2473_5040)" fill-opacity="0.4"/>
<path d="M79.875 78.0371C76.2506 78.0371 73.3125 80.9752 73.3125 84.5996C73.3125 88.224 76.2506 91.1621 79.875 91.1621C83.4994 91.1621 86.4375 88.224 86.4375 84.5996C86.4375 80.9752 83.4994 78.0371 79.875 78.0371Z" stroke="white" stroke-opacity="0.4" stroke-width="0.375"/>
</g>
<g opacity="0.75">
<ellipse cx="53" cy="55.2246" rx="16.5" ry="16.5" transform="rotate(-180 53 55.2246)" fill="url(#paint4_linear_2473_5040)" fill-opacity="0.4"/>
<path d="M53 38.5371C43.7837 38.5371 36.3125 46.0084 36.3125 55.2246C36.3125 64.4409 43.7837 71.9121 53 71.9121C62.2163 71.9121 69.6875 64.4409 69.6875 55.2246C69.6875 46.0084 62.2163 38.5371 53 38.5371Z" stroke="white" stroke-opacity="0.4" stroke-width="0.375"/>
</g>
<g opacity="0.75">
<ellipse cx="36.5" cy="13.9746" rx="12.75" ry="12.75" transform="rotate(-180 36.5 13.9746)" fill="url(#paint5_linear_2473_5040)" fill-opacity="0.4"/>
<path d="M36.5 1.03711C29.3548 1.03711 23.5625 6.82943 23.5625 13.9746C23.5625 21.1198 29.3548 26.9121 36.5 26.9121C43.6452 26.9121 49.4375 21.1198 49.4375 13.9746C49.4375 6.82943 43.6452 1.03711 36.5 1.03711Z" stroke="white" stroke-opacity="0.4" stroke-width="0.375"/>
</g>
<defs>
<linearGradient id="paint0_linear_2473_5040" x1="72.875" y1="13.2246" x2="72.875" y2="34.9746" gradientUnits="userSpaceOnUse">
<stop stop-color="white"/>
<stop offset="1" stop-color="white" stop-opacity="0"/>
</linearGradient>
<linearGradient id="paint1_linear_2473_5040" x1="11.375" y1="66.2246" x2="11.375" y2="87.9746" gradientUnits="userSpaceOnUse">
<stop stop-color="white"/>
<stop offset="1" stop-color="white" stop-opacity="0"/>
</linearGradient>
<linearGradient id="paint2_linear_2473_5040" x1="17.875" y1="42.2246" x2="17.875" y2="54.9746" gradientUnits="userSpaceOnUse">
<stop stop-color="white"/>
<stop offset="1" stop-color="white" stop-opacity="0"/>
</linearGradient>
<linearGradient id="paint3_linear_2473_5040" x1="79.875" y1="78.2246" x2="79.875" y2="90.9746" gradientUnits="userSpaceOnUse">
<stop stop-color="white"/>
<stop offset="1" stop-color="white" stop-opacity="0"/>
</linearGradient>
<linearGradient id="paint4_linear_2473_5040" x1="53" y1="38.7246" x2="53" y2="71.7246" gradientUnits="userSpaceOnUse">
<stop stop-color="white"/>
<stop offset="1" stop-color="white" stop-opacity="0"/>
</linearGradient>
<linearGradient id="paint5_linear_2473_5040" x1="36.5" y1="1.22461" x2="36.5" y2="26.7246" gradientUnits="userSpaceOnUse">
<stop stop-color="white"/>
<stop offset="1" stop-color="white" stop-opacity="0"/>
</linearGradient>
</defs>
</svg>
