<svg width="48" height="47" viewBox="0 0 48 47" fill="none" xmlns="http://www.w3.org/2000/svg">
<path d="M17.418 0C16.5085 3.41015e-05 15.6156 0.244309 14.8318 0.707511C14.0479 1.17071 13.4017 1.83599 12.96 2.63441L11.4168 5.42308H6.9C5.07001 5.42308 3.31496 6.15315 2.02096 7.45268C0.726962 8.75221 0 10.5147 0 12.3526V32.8397C0 34.6776 0.726962 36.4401 2.02096 37.7396C3.31496 39.0392 5.07001 39.7692 6.9 39.7692H20.3952C19.9921 38.7984 19.6881 37.7889 19.488 36.7564H6.9C5.86566 36.7564 4.87368 36.3438 4.14228 35.6092C3.41089 34.8747 3 33.8785 3 32.8397V12.3526C3 11.3138 3.41089 10.3176 4.14228 9.58306C4.87368 8.84855 5.86566 8.4359 6.9 8.4359H13.182L15.582 4.09744C15.7639 3.76865 16.0301 3.49471 16.3529 3.304C16.6757 3.11329 17.0435 3.01276 17.418 3.01282H25.782C26.1565 3.01276 26.5243 3.11329 26.8471 3.304C27.1699 3.49471 27.4361 3.76865 27.618 4.09744L30.018 8.4359H36.3C37.3343 8.4359 38.3263 8.84855 39.0577 9.58306C39.7891 10.3176 40.2 11.3138 40.2 12.3526V19.041C41.2584 19.4327 42.264 19.9376 43.2 20.5402V12.3526C43.2 10.5147 42.473 8.75221 41.179 7.45268C39.885 6.15315 38.13 5.42308 36.3 5.42308H31.7832L30.24 2.63441C29.7983 1.83599 29.1521 1.17071 28.3682 0.707511C27.5844 0.244309 26.6915 3.41015e-05 25.782 0H17.418ZM21.6 12.0513C23.6115 12.0513 25.5722 12.6855 27.2055 13.8646C28.8388 15.0437 30.0623 16.708 30.7032 18.6228C29.7252 18.8892 28.7856 19.2495 27.8952 19.6918C27.5447 18.5815 26.909 17.5835 26.0522 16.7984C25.1954 16.0133 24.1478 15.4689 23.0147 15.2199C21.8817 14.9709 20.7034 15.0261 19.5984 15.38C18.4934 15.734 17.5007 16.3741 16.7205 17.2359C15.9402 18.0977 15.3999 19.1508 15.1539 20.2891C14.9079 21.4274 14.965 22.6107 15.3193 23.7198C15.6737 24.8289 16.3128 25.8246 17.1723 26.6067C18.0318 27.3888 19.0813 27.9296 20.2152 28.1747C19.8624 29.1051 19.5948 30.0788 19.4232 31.0851C17.1254 30.551 15.1038 29.1862 13.7439 27.2509C12.3841 25.3156 11.7813 22.9454 12.0504 20.5922C12.3195 18.2391 13.4417 16.0678 15.2031 14.4925C16.9644 12.9172 19.2415 12.0482 21.6 12.0513ZM48 33.7436C48 41.0647 42.09 47 34.8 47C27.51 47 21.6 41.0647 21.6 33.7436C21.6 26.4224 27.51 20.4872 34.8 20.4872C42.09 20.4872 48 26.4224 48 33.7436ZM36 26.5128C36 26.1932 35.8736 25.8867 35.6485 25.6607C35.4235 25.4347 35.1183 25.3077 34.8 25.3077C34.4817 25.3077 34.1765 25.4347 33.9515 25.6607C33.7264 25.8867 33.6 26.1932 33.6 26.5128V32.5385H27.6C27.2817 32.5385 26.9765 32.6654 26.7515 32.8914C26.5264 33.1174 26.4 33.424 26.4 33.7436C26.4 34.0632 26.5264 34.3697 26.7515 34.5957C26.9765 34.8218 27.2817 34.9487 27.6 34.9487H33.6V40.9744C33.6 41.294 33.7264 41.6005 33.9515 41.8265C34.1765 42.0525 34.4817 42.1795 34.8 42.1795C35.1183 42.1795 35.4235 42.0525 35.6485 41.8265C35.8736 41.6005 36 41.294 36 40.9744V34.9487H42C42.3183 34.9487 42.6235 34.8218 42.8485 34.5957C43.0736 34.3697 43.2 34.0632 43.2 33.7436C43.2 33.424 43.0736 33.1174 42.8485 32.8914C42.6235 32.6654 42.3183 32.5385 42 32.5385H36V26.5128Z" fill="#B5B5B5"/>
</svg>
