<svg width="16" height="18" viewBox="0 0 16 18" fill="none" xmlns="http://www.w3.org/2000/svg">
<path d="M7.92999 8.16491H7.86428C6.93363 8.16491 6.04112 7.79521 5.38307 7.13717L5.38306 7.13717C4.72503 6.47907 4.35533 5.58658 4.35533 4.65596C4.35533 3.72531 4.72502 2.8328 5.38307 2.17475L5.38307 2.17474C6.04116 1.51665 6.93365 1.14695 7.86428 1.14695C8.7949 1.14695 9.68744 1.51665 10.3455 2.17474C10.3455 2.17475 10.3455 2.17475 10.3455 2.17475L10.2326 2.28766C10.8607 2.91576 11.2135 3.76768 11.2135 4.65596L7.92999 8.16491ZM7.92999 8.16491L7.93071 8.1642M7.92999 8.16491L7.93071 8.1642M7.93071 8.1642C8.83691 8.14624 9.70227 7.77835 10.3445 7.13615L7.93071 8.1642ZM6.08875 6.43152L6.08875 6.43152C5.61785 5.9606 5.35327 5.32194 5.35327 4.65598C5.35327 3.99003 5.61785 3.35134 6.08875 2.88045C6.55759 2.41163 7.19272 2.14735 7.85551 2.14504L7.86417 2.14505C8.52986 2.14585 9.16807 2.41069 9.63886 2.88148L9.63886 2.88148C10.1095 3.35214 10.3744 3.99032 10.3753 4.65598C10.3753 5.32199 10.1107 5.96062 9.63981 6.43152L9.63981 6.43152C9.1689 6.90246 8.53029 7.16699 7.86428 7.16699C7.19827 7.16699 6.55964 6.90246 6.08875 6.43152Z" fill="#723CE8" stroke="#723CE8" stroke-width="0.319373"/>
<path d="M0.669659 13.5669V13.5668C0.670549 12.4529 1.11346 11.3848 1.90116 10.5972L0.669659 13.5669ZM0.669659 13.5669V16.4377C0.669659 16.5701 0.722233 16.697 0.815791 16.7906C0.909384 16.8842 1.03632 16.9367 1.16867 16.9367H14.5585M0.669659 13.5669L14.5585 16.9367M4.87072 9.3657L4.87086 9.3657L10.8568 9.3657H10.857C11.9709 9.36665 13.0389 9.80956 13.8265 10.5972C14.6142 11.3849 15.0571 12.4529 15.058 13.5668V13.5669V16.4377C15.058 16.5701 15.0055 16.697 14.9119 16.7906L4.87072 9.3657ZM4.87072 9.3657C3.75682 9.36666 2.68884 9.80958 1.90117 10.5972L4.87072 9.3657ZM14.5585 16.9367H14.559C14.6914 16.9367 14.8183 16.8842 14.9119 16.7906L14.5585 16.9367ZM1.66742 15.9387H14.0599V13.567C14.059 12.7177 13.7213 11.9035 13.1207 11.3028C12.5201 10.7023 11.7058 10.3645 10.8565 10.3636H4.87086C4.02154 10.3645 3.20734 10.7023 2.60668 11.3028C2.60668 11.3028 2.60668 11.3028 2.60667 11.3028M1.66742 15.9387L2.49377 11.1899L2.60667 11.3028M1.66742 15.9387L1.6675 13.567M1.66742 15.9387H1.50773L1.6675 13.567M2.60667 11.3028C2.00613 11.9034 1.66837 12.7177 1.6675 13.567M2.60667 11.3028L1.6675 13.567" fill="#723CE8" stroke="#723CE8" stroke-width="0.319373"/>
</svg>
