<svg width="6" height="31" viewBox="0 0 6 31" fill="none" xmlns="http://www.w3.org/2000/svg">
<path d="M3 0.333333C1.52724 0.333333 0.333333 1.52724 0.333333 3C0.333333 4.47276 1.52724 5.66667 3 5.66667C4.47276 5.66667 5.66667 4.47276 5.66667 3C5.66667 1.52724 4.47276 0.333333 3 0.333333ZM3 25.3333C1.52724 25.3333 0.333334 26.5272 0.333334 28C0.333334 29.4728 1.52724 30.6667 3 30.6667C4.47276 30.6667 5.66667 29.4728 5.66667 28C5.66667 26.5272 4.47276 25.3333 3 25.3333ZM2.5 3L2.5 4.5625L3.5 4.5625L3.5 3L2.5 3ZM2.5 7.6875L2.5 10.8125L3.5 10.8125L3.5 7.6875L2.5 7.6875ZM2.5 13.9375L2.5 17.0625L3.5 17.0625L3.5 13.9375L2.5 13.9375ZM2.5 20.1875L2.5 23.3125L3.5 23.3125L3.5 20.1875L2.5 20.1875ZM2.5 26.4375L2.5 28L3.5 28L3.5 26.4375L2.5 26.4375Z" fill="#723CE8"/>
</svg>
