<svg width="64" height="65" viewBox="0 0 64 65" fill="none" xmlns="http://www.w3.org/2000/svg">
<g clip-path="url(#clip0_1122_3483)">
<path d="M34.3916 9.34586C34.3916 9.34586 34.912 9.30184 35.0187 9.4052C35.0587 9.44539 35.1083 9.46645 35.1636 9.47219L36.0823 9.55449C35.4399 9.62723 34.8776 9.55832 34.3916 9.34586Z" fill="#D1E4FA"/>
<path d="M34.7588 9.34623C34.7588 9.34623 35.2791 9.30221 35.3859 9.40556C35.4259 9.44576 35.4755 9.46681 35.5307 9.47256L36.4495 9.55486C35.8071 9.62759 35.2448 9.55869 34.7588 9.34623Z" fill="#D1E4FA"/>
<path d="M41.0951 1.95396L38.9892 10.2869C37.954 9.93338 36.9171 9.68155 35.8786 9.53142L35.1329 9.42625C35.0596 9.41492 34.9694 9.40595 34.9694 9.40595C34.7634 9.38262 34.7635 9.38338 34.4527 9.35546C22.5166 8.28358 12.1238 16.213 9.35395 27.7486C8.90544 29.6099 8.70449 31.7375 8.75111 34.1299L0.374142 34.0395C0.321092 34.0395 0.269651 34.0557 0.226247 34.0847C0.161945 34.1283 0.0896045 34.1509 0.0108343 34.1525C-0.0406075 32.0975 0.091212 30.0458 0.404685 28.0005C1.65376 20.197 5.18395 13.6947 10.992 8.49505C19.2902 1.21623 30.4772 -1.27784 41.0614 1.82482C41.1112 1.83935 41.1225 1.88293 41.0951 1.95396Z" fill="#70AAF2"/>
<path d="M55.3066 10.6409C58.6374 14.2633 63.9765 22.1218 63.9765 33.4799C63.9765 33.4799 55.1145 33.3921 55.0722 33.3921C55.0722 33.3921 51.1719 19.4517 49.2445 17.2256C49.2011 17.1739 49.1352 17.1206 49.0468 17.0674L49.0564 17.0109C49.0661 16.9624 49.0548 16.9205 49.021 16.8849C46.7351 14.4006 44.0601 12.4683 40.9945 11.0848C40.3933 10.8136 39.6506 10.5618 38.9883 10.2874L41.0942 1.95441C41.1778 1.91083 41.2469 1.89791 41.3016 1.91567C46.7303 3.61874 51.3986 6.52607 55.3066 10.6409Z" fill="#354A95"/>
<path d="M34.4523 9.3552C34.8623 9.53439 35.3365 9.5925 35.8782 9.53116C36.9167 9.68129 37.9536 9.93312 38.9888 10.2866C39.6512 10.5611 40.3938 10.8129 40.9951 11.0841C44.0607 12.4675 46.7357 14.3998 49.0216 16.8842C49.0554 16.9197 49.0666 16.9617 49.057 17.0101L49.0473 17.0666C45.8081 18.7988 42.4644 21.4139 40.5594 24.4988C39.2219 26.6668 38.894 28.5152 38.3973 30.7639C38.1417 31.9229 37.9198 32.7204 37.7301 33.1579C36.7254 35.4744 34.5922 36.9143 32.0201 36.8739C24.0209 36.7529 17.9154 39.4116 12.5719 45.3134C12.5188 45.2795 12.4819 45.2456 12.4577 45.2101C10.1622 41.8153 9.07384 38.2687 8.75072 34.1297C8.70411 31.7373 8.90505 29.6097 9.35356 27.7484C12.1234 16.2127 22.5162 8.28332 34.4523 9.3552Z" fill="#D1E4FA"/>
<path d="M49.0486 17.067C49.137 17.1203 49.2029 17.1736 49.2463 17.2252C51.1738 19.4513 52.6527 21.9502 53.6864 24.722C54.6975 27.484 55.1943 30.3623 55.1766 33.3568C54.802 40.2772 52.0129 45.9644 46.8093 50.4214C35.8216 59.0385 20.5868 56.8317 12.578 45.401C12.5699 45.3881 12.5651 45.3735 12.5667 45.359C12.5683 45.3396 12.5715 45.3251 12.5731 45.3138C17.9167 39.412 24.0222 36.7532 32.0214 36.8743C34.5934 36.9147 36.7267 35.4747 37.7314 33.1582C37.9211 32.7208 38.1429 31.9233 38.3985 30.7642C38.8953 28.5155 39.2232 26.6672 40.5607 24.4992C42.4656 21.4143 45.8094 18.7991 49.0486 17.067ZM28.0025 42.3903C25.9046 42.2563 25.6313 45.2379 27.427 45.677C38.3326 48.3503 48.3075 40.5048 48.3107 29.2872C48.3107 27.0869 45.0683 26.7834 44.9236 29.3485C44.8271 31.0387 44.6825 32.5061 44.1552 33.9557C42.0509 39.7445 36.5965 43.2233 30.4717 42.7697C29.6936 42.7116 28.713 42.4355 28.0025 42.3903Z" fill="#86D3FF"/>
<path d="M27.4259 45.6765C25.6303 45.2374 25.9036 42.2558 28.0015 42.3898C28.712 42.435 29.6926 42.7111 30.4707 42.7692C36.5954 43.2228 42.0499 39.744 44.1542 33.9552C44.6814 32.5056 44.8261 31.0382 44.9226 29.348C45.0673 26.7829 48.3097 27.0864 48.3097 29.2867C48.3065 40.5043 38.3316 48.3498 27.4259 45.6765Z" fill="white"/>
<path d="M55.1759 33.358H63.9291C63.9628 33.4129 63.9773 33.4759 63.9725 33.5469C63.6043 40.9097 61.1142 47.4056 56.5005 53.033C55.5215 54.163 54.4911 55.2365 53.4092 56.2535L47.1735 50.4356C47.1333 50.3984 47.0867 50.3839 47.0337 50.392L46.8086 50.4227C52.0123 45.9656 54.8014 40.2785 55.1759 33.358Z" fill="#70AAF2"/>
<path d="M8.75102 34.1308C9.07414 38.2698 10.1625 41.8164 12.458 45.2113C12.4822 45.2468 12.5191 45.2807 12.5722 45.3146C12.5706 45.3259 12.5674 45.3404 12.5658 45.3598C12.5658 45.3743 12.569 45.3888 12.577 45.4018C20.5858 56.8325 35.8206 59.0392 46.8083 50.4222L47.0333 50.3915C47.0864 50.3834 47.133 50.398 47.1732 50.4351L53.4089 56.253C52.8929 56.7615 52.2483 57.3087 51.4734 57.8947C38.1596 67.9646 19.7097 66.4181 8.29287 54.1754C3.21139 48.5383 0.451212 41.8649 0.0107422 34.1534C0.0895124 34.1534 0.161852 34.1292 0.226155 34.0856C0.269559 34.0565 0.321 34.0404 0.37405 34.0404L8.75102 34.1308Z" fill="#354A95"/>
</g>
<defs>
<clipPath id="clip0_1122_3483">
<rect width="64" height="64" fill="white" transform="translate(0 0.516968)"/>
</clipPath>
</defs>
</svg>
