<svg width="22" height="16" viewBox="0 0 22 16" fill="none" xmlns="http://www.w3.org/2000/svg">
<path d="M10.6253 1.3163C11.2912 1.76058 11.9361 1.97297 12.5846 1.97297C13.2332 1.97297 13.8781 1.76057 14.544 1.31628H17.1113L20.2563 4.43263L18.079 6.06935L17.6244 5.61883L17.6244 5.61882L17.6231 5.61764L16.9869 5.01352L16.8521 4.8855V5.07142V13.4233H13.9099H13.7988L13.8342 13.5287C13.9048 13.7383 13.8592 13.9783 13.7591 14.1764L13.7007 14.2923H13.8304H17.6742H17.754V14.2124V6.99663L17.9361 7.17704L17.9833 7.22377L18.0378 7.18593L18.3029 7.00207L18.3029 7.00211L18.3051 7.00048L21.1945 4.84663L21.1951 4.84611L21.5398 4.58347L21.6127 4.52785L21.5476 4.46326L17.5183 0.470629L17.4949 0.447501H17.4621H14.281H14.257L14.237 0.460724L14.1575 0.513238L14.1575 0.513235L14.1568 0.513699C13.5801 0.90328 13.0657 1.10414 12.5845 1.10414C12.0764 1.10414 11.5622 0.902951 11.0136 0.514687L11.0142 0.513884L11.0029 0.508306L10.8968 0.455791L10.8801 0.447501H10.8614H7.70692H7.67406L7.65072 0.470629L3.62143 4.46326L3.55875 4.52536L3.62679 4.58154L3.9449 4.84418L3.94483 4.84427L3.9483 4.84683L6.8636 7.0002L7.10152 7.18356L7.15364 7.22374L7.20303 7.18024L7.41503 6.9935V7.3567V7.49181L7.53338 7.42664C7.76799 7.29746 8.00212 7.19441 8.23564 7.1173L8.29045 7.0992V7.04148V5.07144V4.87992L8.15441 5.01472L7.08981 6.06964L4.88674 4.43229L8.03135 1.3163H10.6253ZM1.21021 13.85C1.22171 13.9328 1.25857 14.0122 1.32363 14.0793L1.31138 14.0889L1.40871 14.1491C1.83927 14.4158 2.32379 14.6292 2.83555 14.7626L2.8365 14.7629C3.37197 14.8955 3.93514 14.9753 4.49922 14.9753C5.06317 14.9753 5.6266 14.8956 6.13637 14.7626C6.76925 14.5982 7.22131 14.3646 7.64747 14.1444C7.77254 14.0798 7.89539 14.0163 8.01992 13.9561C8.56792 13.6911 9.16576 13.4781 10.1721 13.4781C11.1148 13.4781 12.0537 13.7119 12.7543 14.149L12.7545 14.1491C12.8777 14.2255 13.0031 14.2417 13.1143 14.2117C13.2239 14.1821 13.3134 14.1094 13.3709 14.019C13.4283 13.9288 13.4562 13.8172 13.4382 13.7065C13.42 13.5941 13.3554 13.4879 13.2382 13.4105L13.2382 13.4105L13.2362 13.4092C12.3738 12.8752 11.2721 12.583 10.1721 12.583C9.04523 12.583 8.39062 12.8096 7.80801 13.0899C7.67055 13.1561 7.53817 13.2245 7.40528 13.2933C6.97583 13.5154 6.54097 13.7403 5.91126 13.8987L5.91124 13.8987L5.9084 13.8995C5.46685 14.0282 4.99753 14.0802 4.49929 14.0802C4.00064 14.0802 3.505 14.0281 3.06368 13.8995L3.0637 13.8994L3.06054 13.8986C2.6452 13.7957 2.22908 13.6155 1.8912 13.4096C1.77382 13.3325 1.65129 13.3167 1.54158 13.3467C1.43346 13.3763 1.34364 13.4487 1.28473 13.5382C1.22581 13.6277 1.19479 13.7389 1.21021 13.85ZM1.21027 11.1859C1.21713 11.2335 1.23287 11.2795 1.25796 11.3221H1.17016L1.39754 11.4629C1.40051 11.4648 1.40352 11.4666 1.40657 11.4685L1.40871 11.4698C1.83927 11.7364 2.32379 11.9498 2.83555 12.0833L2.8365 12.0835C3.37197 12.2162 3.93514 12.296 4.49922 12.296C5.06317 12.296 5.6266 12.2162 6.13637 12.0833C6.76925 11.9188 7.22131 11.6853 7.64746 11.4651C7.77254 11.4005 7.89539 11.337 8.01992 11.2768C8.56792 11.0118 9.16576 10.7988 10.1721 10.7988C11.1148 10.7988 12.0537 11.0325 12.7543 11.4697L12.7545 11.4698C12.8777 11.5461 13.0031 11.5624 13.1143 11.5324C13.2239 11.5028 13.3134 11.4301 13.3709 11.3397C13.4283 11.2494 13.4562 11.1379 13.4382 11.0272C13.42 10.9147 13.3554 10.8086 13.2382 10.7312L13.2382 10.7311L13.2362 10.7299C12.3728 10.1953 11.2707 9.92997 10.1721 9.92997C9.04566 9.92997 8.39116 10.1498 7.80835 10.4269C7.66167 10.4966 7.52083 10.5692 7.379 10.6423C6.95803 10.8592 6.52833 11.0805 5.91136 11.2457C5.46454 11.3498 4.99425 11.4272 4.49929 11.4272C4.00457 11.4272 3.50834 11.3499 3.06224 11.246C2.64053 11.1153 2.22712 10.9607 1.8936 10.7319L1.8937 10.7318L1.88925 10.7292C1.64456 10.5837 1.40123 10.7016 1.28473 10.8786C1.22621 10.9676 1.1946 11.0772 1.21027 11.1859ZM1.21021 8.51785C1.22171 8.60059 1.25857 8.67999 1.32363 8.74711L1.31139 8.75668L1.40871 8.81695C1.84096 9.08465 2.32558 9.2711 2.83425 9.40386C3.37383 9.56409 3.93831 9.61691 4.49922 9.61691C5.05956 9.61691 5.62441 9.5642 6.1382 9.40372C6.76537 9.24052 7.21492 9.01334 7.63798 8.79954C7.7661 8.7348 7.89178 8.67128 8.01923 8.61115C8.56723 8.35257 9.16531 8.14596 10.1721 8.14596C11.1166 8.14596 12.0539 8.35415 12.7525 8.81569L12.7524 8.81588L12.7577 8.81881C13.0129 8.96111 13.2561 8.84756 13.3709 8.66718C13.4279 8.57748 13.4564 8.46743 13.4381 8.35908C13.4196 8.24902 13.354 8.1476 13.2364 8.07716C12.3724 7.51583 11.2701 7.2508 10.1721 7.2508C9.04566 7.2508 8.39116 7.47067 7.80835 7.74773C7.66167 7.81746 7.52083 7.89003 7.37899 7.9631C6.95775 8.18014 6.52775 8.40168 5.91012 8.56684L5.91011 8.56682L5.9084 8.56732C5.46685 8.69603 4.99753 8.74799 4.49929 8.74799C4.00064 8.74799 3.505 8.69595 3.06368 8.56732L3.0637 8.56725L3.06054 8.56647C2.64519 8.46356 2.22907 8.28328 1.89119 8.07743C1.77382 8.00035 1.65129 7.98448 1.54158 8.0145C1.43346 8.04409 1.34364 8.11653 1.28473 8.20604C1.22581 8.29557 1.19479 8.40675 1.21021 8.51785Z" fill="#723CE8" stroke="#723CE8" stroke-width="0.159686"/>
</svg>
