<svg width="16" height="20" viewBox="0 0 16 20" fill="none" xmlns="http://www.w3.org/2000/svg">
<path fill-rule="evenodd" clip-rule="evenodd" d="M7.75 18.9989L8.45988 18.201C9.26538 17.2809 9.98988 16.4079 10.6345 15.5775L11.1666 14.8773C13.3885 11.8913 14.5 9.52141 14.5 7.76978C14.5 4.03086 11.4782 1 7.75 1C4.02175 1 1 4.03086 1 7.76978C1 9.52141 2.1115 11.8913 4.33338 14.8773L4.8655 15.5775C5.78512 16.7528 6.74725 17.8933 7.75 18.9989Z" stroke="#723CE8" stroke-width="1.23072" stroke-linecap="round" stroke-linejoin="round"/>
<path d="M7.75 10.5384C9.3033 10.5384 10.5625 9.28238 10.5625 7.73305C10.5625 6.18371 9.3033 4.92773 7.75 4.92773C6.1967 4.92773 4.9375 6.18371 4.9375 7.73305C4.9375 9.28238 6.1967 10.5384 7.75 10.5384Z" stroke="#723CE8" stroke-width="1.23072" stroke-linecap="round" stroke-linejoin="round"/>
</svg>
