<svg width="13" height="16" viewBox="0 0 13 16" fill="none" xmlns="http://www.w3.org/2000/svg">
<path d="M6.5 2C5.26421 2 4.25 3.01421 4.25 4.25V6.5H11C11.8284 6.5 12.5 7.17157 12.5 8V14C12.5 14.8284 11.8284 15.5 11 15.5H2C1.17157 15.5 0.5 14.8284 0.5 14V8C0.5 7.17157 1.17157 6.5 2 6.5H2.75V4.25C2.75 2.18579 4.43579 0.5 6.5 0.5C8.56421 0.5 10.25 2.18579 10.25 4.25C10.25 4.66421 9.91421 5 9.5 5C9.08579 5 8.75 4.66421 8.75 4.25C8.75 3.01421 7.73579 2 6.5 2ZM2 8V14H11V8H2Z" fill="#6A6C71"/>
</svg>
