<svg width="12" height="12" viewBox="0 0 12 12" fill="none" xmlns="http://www.w3.org/2000/svg">
<path d="M10.1581 7.53693L11.5134 8.89231C11.8204 9.19928 11.8204 9.697 11.5134 10.004C9.85376 11.6636 7.22627 11.8504 5.34857 10.4421L5.23911 10.36C3.82273 9.29772 2.56452 8.03951 1.50223 6.62313L1.42014 6.51367C0.0118601 4.63596 0.198591 2.00847 1.85826 0.348804C2.16524 0.0418247 2.66295 0.0418251 2.96993 0.348804L4.32531 1.70418C4.79332 2.17219 4.79332 2.93099 4.32531 3.399L3.44891 4.27539C3.24278 4.48152 3.19168 4.79642 3.32205 5.05715C4.07567 6.5644 5.29783 7.78656 6.80509 8.54019C7.06582 8.67055 7.38072 8.61945 7.58684 8.41333L8.46324 7.53693C8.93125 7.06892 9.69005 7.06892 10.1581 7.53693Z" fill="#723CE8"/>
</svg>
