<svg width="66" height="69" viewBox="0 0 66 69" fill="none" xmlns="http://www.w3.org/2000/svg">
<g opacity="0.75">
<circle cx="8.15625" cy="8.15625" r="8.15625" transform="matrix(1 -8.74228e-08 -8.74228e-08 -1 2.375 26.5371)" fill="url(#paint0_linear_2473_5047)" fill-opacity="0.4"/>
<circle cx="8.15625" cy="8.15625" r="8.29688" transform="matrix(1 -8.74228e-08 -8.74228e-08 -1 2.375 26.5371)" stroke="white" stroke-opacity="0.4" stroke-width="0.28125"/>
</g>
<g opacity="0.75">
<circle cx="8.15625" cy="8.15625" r="8.15625" transform="matrix(1 -8.74228e-08 -8.74228e-08 -1 48.5 66.2871)" fill="url(#paint1_linear_2473_5047)" fill-opacity="0.4"/>
<circle cx="8.15625" cy="8.15625" r="8.29688" transform="matrix(1 -8.74228e-08 -8.74228e-08 -1 48.5 66.2871)" stroke="white" stroke-opacity="0.4" stroke-width="0.28125"/>
</g>
<g opacity="0.75">
<ellipse cx="4.78125" cy="4.78125" rx="4.78125" ry="4.78125" transform="matrix(1 -8.74228e-08 -8.74228e-08 -1 47 41.5371)" fill="url(#paint2_linear_2473_5047)" fill-opacity="0.4"/>
<path d="M51.7813 31.834C54.4995 31.834 56.7031 34.0376 56.7031 36.7559C56.7031 39.4741 54.4995 41.6777 51.7813 41.6777C49.063 41.6777 46.8594 39.4741 46.8594 36.7559C46.8594 34.0376 49.063 31.834 51.7813 31.834Z" stroke="white" stroke-opacity="0.4" stroke-width="0.28125"/>
</g>
<g opacity="0.75">
<ellipse cx="4.78125" cy="4.78125" rx="4.78125" ry="4.78125" transform="matrix(1 -8.74228e-08 -8.74228e-08 -1 0.5 68.5371)" fill="url(#paint3_linear_2473_5047)" fill-opacity="0.4"/>
<path d="M5.28125 58.834C7.99953 58.834 10.2031 61.0376 10.2031 63.7559C10.2031 66.4741 7.99953 68.6777 5.28125 68.6777C2.56297 68.6777 0.359375 66.4741 0.359375 63.7559C0.359374 61.0376 2.56297 58.834 5.28125 58.834Z" stroke="white" stroke-opacity="0.4" stroke-width="0.28125"/>
</g>
<g opacity="0.75">
<ellipse cx="12.375" cy="12.375" rx="12.375" ry="12.375" transform="matrix(1 -8.74228e-08 -8.74228e-08 -1 13.0625 54.0996)" fill="url(#paint4_linear_2473_5047)" fill-opacity="0.4"/>
<path d="M25.4375 29.209C32.3497 29.209 37.9531 34.8124 37.9531 41.7246C37.9531 48.6368 32.3497 54.2402 25.4375 54.2402C18.5253 54.2402 12.9219 48.6368 12.9219 41.7246C12.9219 34.8124 18.5253 29.209 25.4375 29.209Z" stroke="white" stroke-opacity="0.4" stroke-width="0.28125"/>
</g>
<g opacity="0.75">
<ellipse cx="9.5625" cy="9.5625" rx="9.5625" ry="9.5625" transform="matrix(1 -8.74228e-08 -8.74228e-08 -1 28.25 20.3496)" fill="url(#paint5_linear_2473_5047)" fill-opacity="0.4"/>
<path d="M37.8125 1.08399C43.1714 1.08399 47.5156 5.42822 47.5156 10.7871C47.5156 16.146 43.1714 20.4902 37.8125 20.4902C32.4536 20.4902 28.1094 16.146 28.1094 10.7871C28.1094 5.42822 32.4536 1.08399 37.8125 1.08399Z" stroke="white" stroke-opacity="0.4" stroke-width="0.28125"/>
</g>
<defs>
<linearGradient id="paint0_linear_2473_5047" x1="8.15625" y1="0" x2="8.15625" y2="16.3125" gradientUnits="userSpaceOnUse">
<stop stop-color="white"/>
<stop offset="1" stop-color="white" stop-opacity="0"/>
</linearGradient>
<linearGradient id="paint1_linear_2473_5047" x1="8.15625" y1="0" x2="8.15625" y2="16.3125" gradientUnits="userSpaceOnUse">
<stop stop-color="white"/>
<stop offset="1" stop-color="white" stop-opacity="0"/>
</linearGradient>
<linearGradient id="paint2_linear_2473_5047" x1="4.78125" y1="0" x2="4.78125" y2="9.5625" gradientUnits="userSpaceOnUse">
<stop stop-color="white"/>
<stop offset="1" stop-color="white" stop-opacity="0"/>
</linearGradient>
<linearGradient id="paint3_linear_2473_5047" x1="4.78125" y1="0" x2="4.78125" y2="9.5625" gradientUnits="userSpaceOnUse">
<stop stop-color="white"/>
<stop offset="1" stop-color="white" stop-opacity="0"/>
</linearGradient>
<linearGradient id="paint4_linear_2473_5047" x1="12.375" y1="0" x2="12.375" y2="24.75" gradientUnits="userSpaceOnUse">
<stop stop-color="white"/>
<stop offset="1" stop-color="white" stop-opacity="0"/>
</linearGradient>
<linearGradient id="paint5_linear_2473_5047" x1="9.5625" y1="0" x2="9.5625" y2="19.125" gradientUnits="userSpaceOnUse">
<stop stop-color="white"/>
<stop offset="1" stop-color="white" stop-opacity="0"/>
</linearGradient>
</defs>
</svg>
